<?xml version="1.0" encoding="UTF-8" standalone="no"?>
<!-- Created with Inkscape (http://www.inkscape.org/) -->

<svg
   width="630"
   height="880"
   viewBox="0 0 166.6875 232.83333"
   version="1.1"
   id="svg1"
   inkscape:version="1.3 (0e150ed6c4, 2023-07-21)"
   sodipodi:docname="da-deck-throw-dices.svg"
   inkscape:export-filename="../png/da-deck-throw-dices.png"
   inkscape:export-xdpi="96"
   inkscape:export-ydpi="96"
   xmlns:inkscape="http://www.inkscape.org/namespaces/inkscape"
   xmlns:sodipodi="http://sodipodi.sourceforge.net/DTD/sodipodi-0.dtd"
   xmlns="http://www.w3.org/2000/svg"
   xmlns:svg="http://www.w3.org/2000/svg">
  <sodipodi:namedview
     id="namedview1"
     pagecolor="#2c1d1d"
     bordercolor="#000000"
     borderopacity="0.25"
     inkscape:showpageshadow="false"
     inkscape:pageopacity="0.0"
     inkscape:pagecheckerboard="true"
     inkscape:deskcolor="#d1d1d1"
     inkscape:document-units="px"
     inkscape:zoom="0.74473179"
     inkscape:cx="181.9447"
     inkscape:cy="532.40644"
     inkscape:window-width="1918"
     inkscape:window-height="1059"
     inkscape:window-x="0"
     inkscape:window-y="20"
     inkscape:window-maximized="1"
     inkscape:current-layer="layer1" />
  <defs
     id="defs1">
    <inkscape:path-effect
       effect="perspective-envelope"
       up_left_point="86.273862,97.046316"
       up_right_point="114.58634,113.74298"
       down_left_point="85.902818,130.46753"
       down_right_point="114.4388,147.27322"
       id="path-effect7"
       is_visible="true"
       lpeversion="1"
       deform_type="perspective"
       horizontal_mirror="false"
       vertical_mirror="false"
       overflow_perspective="false" />
    <inkscape:path-effect
       effect="perspective-envelope"
       up_left_point="114.64318,113.75383"
       up_right_point="143.96025,97.61373"
       down_left_point="114.74498,147.33627"
       down_right_point="143.6719,130.96673"
       id="path-effect6"
       is_visible="true"
       lpeversion="1"
       deform_type="perspective"
       horizontal_mirror="false"
       vertical_mirror="false"
       overflow_perspective="false" />
    <inkscape:path-effect
       effect="perspective-envelope"
       up_left_point="86.273862,97.046316"
       up_right_point="115.2013,80.676772"
       down_left_point="114.60598,113.73213"
       down_right_point="143.53289,97.362067"
       id="path-effect5"
       is_visible="true"
       lpeversion="1"
       deform_type="perspective"
       horizontal_mirror="false"
       vertical_mirror="false"
       overflow_perspective="false" />
    <inkscape:path-effect
       effect="fillet_chamfer"
       id="path-effect13"
       is_visible="true"
       lpeversion="1"
       nodesatellites_param="F,0,0,1,0,0,0,1 @ F,0,0,1,0,0,0,1 @ F,0,0,1,0,0,0,1 @ F,0,0,1,0,0,0,1 @ F,0,0,1,0,0,0,1 @ F,0,0,1,0,0,0,1 @ F,0,0,1,0,0,0,1 @ F,0,0,1,0,0,0,1 @ F,0,0,1,0,0,0,1 @ F,0,0,1,0,0,0,1 @ F,0,0,1,0,0,0,1 @ F,0,0,1,0,0,0,1 @ F,0,0,1,0,0,0,1 @ F,0,0,1,0,0,0,1 @ F,0,0,1,0,0,0,1 @ F,0,0,1,0,0,0,1 @ F,0,0,1,0,0,0,1 @ F,0,0,1,0,0,0,1 @ F,0,0,1,0,0,0,1 @ F,0,0,1,0,0,0,1 @ F,0,0,1,0,0,0,1"
       radius="0"
       unit="px"
       method="auto"
       mode="F"
       chamfer_steps="1"
       flexible="false"
       use_knot_distance="true"
       apply_no_radius="true"
       apply_with_radius="true"
       only_selected="false"
       hide_knots="false" />
    <inkscape:path-effect
       effect="fillet_chamfer"
       id="path-effect12"
       is_visible="true"
       lpeversion="1"
       nodesatellites_param="F,0,0,1,0,0,0,1 @ F,0,0,1,0,0,0,1 @ F,0,0,1,0,0,0,1 @ F,0,0,1,0,0,0,1 @ F,0,0,1,0,0,0,1 @ F,0,0,1,0,0,0,1 @ F,0,0,1,0,0,0,1 @ F,0,0,1,0,0,0,1 @ F,0,0,1,0,0,0,1 @ F,0,0,1,0,0,0,1 @ F,0,0,1,0,0,0,1 @ F,0,0,1,0,0,0,1 @ F,0,0,1,0,0,0,1 @ F,0,0,1,0,0,0,1 @ F,0,0,1,0,0,0,1 @ F,0,0,1,0,0,0,1 @ F,0,0,1,0,0,0,1 @ F,0,0,1,0,0,0,1 @ F,0,0,1,0,0,0,1 @ F,0,0,1,0,0,0,1 @ F,0,0,1,0,0,0,1"
       radius="0"
       unit="px"
       method="auto"
       mode="F"
       chamfer_steps="1"
       flexible="false"
       use_knot_distance="true"
       apply_no_radius="true"
       apply_with_radius="true"
       only_selected="false"
       hide_knots="false" />
    <inkscape:path-effect
       effect="fillet_chamfer"
       id="path-effect11"
       is_visible="true"
       lpeversion="1"
       nodesatellites_param="F,0,0,1,0,0,0,1 @ F,0,0,1,0,0,0,1 @ F,0,0,1,0,0,0,1 @ F,0,0,1,0,0,0,1 @ F,0,0,1,0,0,0,1 @ F,0,0,1,0,0,0,1 @ F,0,0,1,0,0,0,1 @ F,0,0,1,0,0,0,1 @ F,0,0,1,0,0,0,1 @ F,0,0,1,0,0,0,1 @ F,0,0,1,0,0,0,1 @ F,0,0,1,0,0,0,1 @ F,0,0,1,0,0,0,1 @ F,0,0,1,0,0,0,1 @ F,0,0,1,0,0,0,1 @ F,0,0,1,0,0,0,1 @ F,0,0,1,0,0,0,1 @ F,0,0,1,0,0,0,1 @ F,0,0,1,0,0,0,1 @ F,0,0,1,0,0,0,1 @ F,0,0,1,0,0,0,1"
       radius="0"
       unit="px"
       method="auto"
       mode="F"
       chamfer_steps="1"
       flexible="false"
       use_knot_distance="true"
       apply_no_radius="true"
       apply_with_radius="true"
       only_selected="false"
       hide_knots="false" />
    <inkscape:path-effect
       effect="perspective-envelope"
       up_left_point="45.919476,77.451303"
       up_right_point="75.236552,61.311202"
       down_left_point="45.8262,110.91873"
       down_right_point="74.948195,94.664207"
       id="path-effect10"
       is_visible="true"
       lpeversion="1"
       deform_type="perspective"
       horizontal_mirror="false"
       vertical_mirror="false"
       overflow_perspective="false" />
    <inkscape:path-effect
       effect="perspective-envelope"
       up_left_point="17.558934,60.760074"
       up_right_point="45.881236,77.451303"
       down_left_point="17.17911,94.164975"
       down_right_point="45.529319,110.86115"
       id="path-effect9"
       is_visible="true"
       lpeversion="1"
       deform_type="perspective"
       horizontal_mirror="false"
       vertical_mirror="false"
       overflow_perspective="false" />
    <inkscape:path-effect
       effect="perspective-envelope"
       up_left_point="17.568752,60.754647"
       up_right_point="46.496186,44.385103"
       down_left_point="45.900876,77.440413"
       down_right_point="75.041731,61.19648"
       id="path-effect8"
       is_visible="true"
       lpeversion="1"
       deform_type="perspective"
       horizontal_mirror="false"
       vertical_mirror="false"
       overflow_perspective="false" />
    <rect
       x="414.91448"
       y="198.72927"
       width="378.65982"
       height="72.509327"
       id="rect5" />
    <inkscape:path-effect
       effect="powerstroke"
       id="path-effect2"
       is_visible="true"
       lpeversion="1.3"
       scale_width="1"
       interpolator_type="CentripetalCatmullRom"
       interpolator_beta="0.75"
       start_linecap_type="round"
       end_linecap_type="round"
       offset_points="31.204005,2.3886746"
       linejoin_type="spiro"
       miter_limit="4"
       not_jump="true"
       sort_points="true"
       message="&lt;b&gt;Ctrl + clic&lt;/b&gt; sobre un nodo existente y muévalo" />
    <inkscape:path-effect
       effect="simplify"
       id="path-effect1"
       is_visible="true"
       lpeversion="1.3"
       threshold="0.012"
       steps="1"
       smooth_angles="0"
       helper_size="0"
       simplify_individual_paths="false"
       simplify_just_coalesce="false"
       step="1" />
    <inkscape:path-effect
       effect="fillet_chamfer"
       id="path-effect13-3"
       is_visible="true"
       lpeversion="1"
       nodesatellites_param="F,0,0,1,0,0,0,1 @ F,0,0,1,0,0,0,1 @ F,0,0,1,0,0,0,1 @ F,0,0,1,0,0,0,1 @ F,0,0,1,0,0,0,1 @ F,0,0,1,0,0,0,1 @ F,0,0,1,0,0,0,1 @ F,0,0,1,0,0,0,1 @ F,0,0,1,0,0,0,1 @ F,0,0,1,0,0,0,1 @ F,0,0,1,0,0,0,1 @ F,0,0,1,0,0,0,1 @ F,0,0,1,0,0,0,1 @ F,0,0,1,0,0,0,1 @ F,0,0,1,0,0,0,1 @ F,0,0,1,0,0,0,1 @ F,0,0,1,0,0,0,1 @ F,0,0,1,0,0,0,1 @ F,0,0,1,0,0,0,1 @ F,0,0,1,0,0,0,1 @ F,0,0,1,0,0,0,1"
       radius="0"
       unit="px"
       method="auto"
       mode="F"
       chamfer_steps="1"
       flexible="false"
       use_knot_distance="true"
       apply_no_radius="true"
       apply_with_radius="true"
       only_selected="false"
       hide_knots="false" />
  </defs>
  <g
     inkscape:label="throw-dices"
     inkscape:groupmode="layer"
     id="layer1">
    <rect
       style="display:inline;fill:#ffffff;stroke-width:0.264583"
       id="rect25"
       width="166.6875"
       height="232.83333"
       x="5.7220459e-06"
       y="-2.5431316e-06"
       inkscape:label="card-background"
       ry="13.250577"
       sodipodi:insensitive="true" />
    <text
       xml:space="preserve"
       style="font-style:normal;font-variant:normal;font-weight:normal;font-stretch:normal;font-size:12.7px;font-family:Cantarell;-inkscape-font-specification:'Cantarell, Normal';font-variant-ligatures:normal;font-variant-caps:normal;font-variant-numeric:normal;font-variant-east-asian:normal;text-align:center;text-anchor:middle;fill:#000000;fill-opacity:1;stroke:none;stroke-width:1;stroke-dasharray:none"
       x="83.553299"
       y="196.76036"
       id="text2"
       inkscape:label="card-effect"><tspan
         sodipodi:role="line"
         style="text-align:center;text-anchor:middle;fill:#000000;fill-opacity:1;stroke-width:1"
         x="83.553299"
         y="196.76036"
         id="tspan4">Tira ambos dados</tspan></text>
    <g
       inkscape:groupmode="layer"
       id="layer3"
       inkscape:label="number-dice"
       sodipodi:insensitive="true"
       transform="translate(0,-15.16383)">
      <path
         id="path1-0"
         style="fill:#000000;fill-opacity:1;stroke:#000000;stroke-width:0.497097"
         d="m 46.496386,44.384887 -28.927433,16.369544 -0.01964,0.01085 0.0186,0.01085 -0.08165,0.04651 -0.288354,33.353002 28.350207,16.696137 0.371553,0.21911 0.101803,-0.0574 0.0186,0.0109 28.926917,-16.369542 0.288354,-33.353003 -0.38964,-0.229443 -28.927433,16.369543 -0.0186,-0.01085 -0.01964,0.01085 -0.0186,-0.01085 0.01964,-0.01085 0.0186,0.01085 28.927433,-16.369543 -0.01912,-0.01137 z"
         inkscape:original-d="m 46.496386,44.384887 -28.927433,16.369544 -0.01964,0.01085 0.0186,0.01085 -0.08165,0.04651 -0.288354,33.353002 28.350207,16.696137 0.371553,0.21911 0.101803,-0.0574 0.0186,0.0109 28.926917,-16.369542 0.288354,-33.353003 -0.38964,-0.229443 -28.927433,16.369543 -0.0186,-0.01085 -0.01964,0.01085 -0.0186,-0.01085 0.01964,-0.01085 0.0186,0.01085 28.927433,-16.369543 -0.01912,-0.01137 z"
         inkscape:path-effect="#path-effect13-3"
         transform="translate(68.704909,36.291885)" />
      <path
         id="rect4"
         style="fill:#ffffff;fill-opacity:1;stroke:#000000;stroke-width:0.316328"
         d="m 89.977129,94.9507 c -2.051699,1.161022 -2.085715,3.048251 -0.0763,4.23167 l 21.078141,12.41368 c 2.00944,1.18344 5.27855,1.20146 7.33021,0.0404 l 21.52065,-12.178782 c 2.05158,-1.161011 2.08552,-3.048216 0.0761,-4.231614 L 118.8282,82.812759 c -2.00938,-1.183382 -5.27841,-1.201427 -7.33002,-0.04045 z m 20.486061,-0.157508 c 1.57305,-0.890181 3.50615,-1.004846 4.81991,-0.231132 0.93158,0.548634 1.0871,1.302114 0.44748,1.967511 1.36174,-0.549925 2.89396,-0.506739 3.96885,0.126302 1.43319,0.844049 1.10783,2.131332 -0.74568,3.180237 -0.89019,0.50376 -2.12863,0.92894 -3.35172,1.15214 l -0.58084,-0.59564 c 1.1748,-0.22345 2.34169,-0.676939 3.08554,-1.097886 1.25599,-0.710767 1.57148,-1.482425 0.63991,-2.031056 -0.97935,-0.57677 -2.46651,-0.424659 -3.88104,0.375816 l -0.87826,0.497006 -0.84778,-0.49929 0.65871,-0.372761 c 1.2438,-0.703862 1.53684,-1.57331 0.62915,-2.107877 -0.84797,-0.499398 -2.18997,-0.374484 -3.27524,0.239664 -0.62192,0.35194 -1.2236,0.913067 -1.60941,1.558962 l -0.97172,-0.304983 c 0.31339,-0.646288 1.01415,-1.360164 1.89214,-1.857013 z" />
      <path
         id="text6"
         style="font-size:16.9333px;font-family:Cantarell;-inkscape-font-specification:'Cantarell, Normal';text-align:center;text-anchor:middle;fill:#ffffff;stroke:#512828;stroke-width:0.125188"
         d="m 126.0874,130.41283 6.65068,-3.7315 0.005,-1.24739 -4.8201,2.70167 c 3.30931,-5.44211 4.43551,-8.01573 4.44381,-10.05468 0.009,-2.12964 -1.24415,-2.72436 -3.18716,-1.64512 -1.26177,0.70084 -2.46504,1.89396 -3.24307,3.18318 l 0.34859,0.81953 c 0.80779,-1.20051 1.81221,-2.1259 2.63274,-2.58214 1.351,-0.7512 2.18175,-0.28904 2.17659,1.15959 -0.006,1.76051 -1.23841,4.27296 -5.00587,10.44263 z m -6.75819,-19.23883 20.05014,-11.03832 c 2.5402,-1.398472 4.56032,-0.141723 4.53482,2.80863 l -0.19721,22.81034 c -0.025,2.8902 -2.05894,6.35172 -4.56569,7.77027 l -19.78332,11.19525 c -2.5587,1.44794 -4.63006,0.27864 -4.63888,-2.63103 l -0.0696,-22.96725 c -0.009,-2.97106 2.07619,-6.52004 4.66976,-7.94789 z"
         inkscape:path-effect="#path-effect6"
         inkscape:original-d="m 132.06993,123.24103 h 3.52528 v -0.57686 h -2.55583 c 1.74662,-1.65849 2.33951,-2.55583 2.33951,-3.49324 0,-0.97747 -0.665,-1.57036 -1.69054,-1.57036 -0.66499,0 -1.29794,0.24037 -1.70656,0.63295 l 0.18428,0.4647 c 0.42464,-0.34452 0.95343,-0.51277 1.38608,-0.51277 0.71307,0 1.15373,0.42464 1.15373,1.08964 0,0.80921 -0.64898,1.65047 -2.63595,3.52528 z m -3.54634,-10.51832 h 10.52982 c 1.34798,0 2.43319,1.0852 2.43319,2.43319 v 10.52981 c 0,1.34799 -1.08521,2.43319 -2.43319,2.43319 h -10.52982 c -1.34798,0 -2.43319,-1.0852 -2.43319,-2.43319 V 115.1559 c 0,-1.34799 1.08521,-2.43319 2.43319,-2.43319 z" />
      <path
         id="text7"
         style="font-size:16.9333px;font-family:Cantarell;-inkscape-font-specification:'Cantarell, Normal';text-align:center;text-anchor:middle;fill:#ffffff;stroke:#512828;stroke-width:0.11482"
         d="m 101.20568,128.29733 1.08846,0.64132 0.0823,-11.33084 -0.65958,-0.3888 -3.41145,0.0685 0.40502,1.16538 2.56876,0.0674 z M 90.438913,99.502563 110.42604,111.28954 c 2.30491,1.35926 4.1507,4.63607 4.13875,7.35031 l -0.10415,23.67044 c -0.0121,2.74803 -1.89187,3.86161 -4.21496,2.49348 L 90.100767,132.93983 c -2.325559,-1.36959 -4.173439,-4.68001 -4.143029,-7.41911 l 0.261936,-23.59347 c 0.03003,-2.705415 1.911904,-3.785387 4.219239,-2.424687 z" />
    </g>
    <g
       inkscape:groupmode="layer"
       id="layer2"
       inkscape:label="resource-dice"
       sodipodi:insensitive="true"
       transform="translate(0,-15.16383)">
      <path
         id="path1"
         style="opacity:1;fill:#000000;stroke:#000000;stroke-width:0.497097"
         d="m 46.496386,44.384887 -28.927433,16.369544 -0.01964,0.01085 0.0186,0.01085 -0.08165,0.04651 -0.288354,33.353002 28.350207,16.696137 0.371553,0.21911 0.101803,-0.0574 0.0186,0.0109 28.926917,-16.369542 0.288354,-33.353003 -0.38964,-0.229443 -28.927433,16.369543 -0.0186,-0.01085 -0.01964,0.01085 -0.0186,-0.01085 0.01964,-0.01085 0.0186,0.01085 28.927433,-16.369543 -0.01912,-0.01137 z"
         inkscape:original-d="m 46.496386,44.384887 -28.927433,16.369544 -0.01964,0.01085 0.0186,0.01085 -0.08165,0.04651 -0.288354,33.353002 28.350207,16.696137 0.371553,0.21911 0.101803,-0.0574 0.0186,0.0109 28.926917,-16.369542 0.288354,-33.353003 -0.38964,-0.229443 -28.927433,16.369543 -0.0186,-0.01085 -0.01964,0.01085 -0.0186,-0.01085 0.01964,-0.01085 0.0186,0.01085 28.927433,-16.369543 -0.01912,-0.01137 z"
         inkscape:path-effect="#path-effect13"
         transform="translate(8.8219882,23.982597)" />
      <path
         style="display:inline;fill:#ffffff;fill-opacity:1;stroke:#000000;stroke-width:0.242428;stroke-dasharray:none;stroke-opacity:1"
         d="m 70.211763,98.626899 -0.58346,1.971331 c -0.0972,0.0484 -0.19443,0.0992 -0.29173,0.15228 -0.16582,0.0994 -0.33144,0.2054 -0.49658,0.31786 l -0.61632,-1.299449 c -0.59892,0.410449 -1.19039,0.881149 -1.76657,1.405859 l 0.0308,1.85584 c -0.2346,0.24861 -0.46428,0.50891 -0.68815,0.77993 l -1.23609,-0.62888 c -0.51685,0.61663 -1.00612,1.27172 -1.46156,1.95688 l 0.77112,1.52358 c -0.16244,0.29812 -0.31692,0.60096 -0.46299,0.90755 l -1.83715,0.32388 c -0.3422,0.71659 -0.64245,1.44362 -0.89714,2.17233 l 1.55859,0.72868 c -0.0792,0.29929 -0.14919,0.59756 -0.20975,0.89395 l -2.12107,1.45978 c -0.11268,0.68578 -0.17754,1.35468 -0.19384,1.99911 l 2.06938,-0.4163 c 0.008,0.27956 0.0251,0.55257 0.0535,0.81816 l -1.83758,2.29911 c 0.12802,0.54056 0.30218,1.04134 0.52053,1.49678 l 2.02667,-1.44067 c 0.11208,0.22711 0.2364,0.43994 0.37245,0.63762 l -1.11968,2.46949 c 0.34309,0.30806 0.7238,0.55977 1.13778,0.75229 l 1.51909,-1.9443 c 0.22923,0.11147 0.47,0.19928 0.72101,0.26294 l -0.3352,2.08204 c 0.49915,0.0233 1.02086,-0.0172 1.55901,-0.12111 l 0.88079,-1.99582 c 0.31511,-0.0688 0.63564,-0.16612 0.95954,-0.29122 l 0.308,1.53367 c 0.22458,-0.0976 0.44997,-0.20464 0.67575,-0.32109 0.34452,-0.19867 0.68854,-0.4183 1.03054,-0.65793 l 0.2836,-1.90268 c 0.31743,-0.24348 0.63114,-0.50984 0.93918,-0.79742 l 0.90194,0.96345 c 0.5363,-0.5132 1.05501,-1.07058 1.54998,-1.66552 l -0.37489,-1.71812 c 0.23791,-0.33275 0.46634,-0.67678 0.68417,-1.03039 l 1.53117,0.1858 c 0.40939,-0.66733 0.78432,-1.35555 1.12045,-2.0567 l -1.16542,-1.18428 c 0.12998,-0.32988 0.24964,-0.66164 0.35853,-0.99407 l 2.00295,-0.88065 c 0.21145,-0.70652 0.37757,-1.40756 0.49648,-2.09511 l -1.85802,-0.17951 c 0.0265,-0.27799 0.0438,-0.55206 0.0518,-0.82147 l 2.0443,-1.94483 c -0.0246,-0.62402 -0.0981,-1.21689 -0.2198,-1.77178 l -2.10719,0.96686 c -0.06,-0.21785 -0.12874,-0.42757 -0.20596,-0.62858 l 1.50505,-2.4632 c -0.26057,-0.438941 -0.56689,-0.824222 -0.91523,-1.151126 l -1.79723,1.749266 c -0.14571,-0.13621 -0.29947,-0.25958 -0.46082,-0.3697 l 0.72215,-2.340937 c -0.45688,-0.173042 -0.94776,-0.277677 -1.46634,-0.312518 l -1.19814,2.006998 c -0.22575,-0.01375 -0.45716,-0.01022 -0.69333,0.01057 l 4.5e-4,-1.855044 c -0.57711,0.128496 -1.16916,0.328008 -1.76829,0.595922 z"
         id="path618-2" />
      <path
         id="path618"
         style="display:inline;fill:#ff7f00;fill-opacity:1;stroke:#000000;stroke-width:0.242428;stroke-dasharray:none;stroke-opacity:1"
         inkscape:label="tools"
         inkscape:transform-center-x="-6.2566331e-05"
         inkscape:transform-center-y="-4.6166217e-05"
         d="m 70.21176,98.626899 -0.58346,1.971331 c -0.0972,0.0484 -0.19443,0.0992 -0.29173,0.15228 -0.16582,0.0994 -0.33144,0.2054 -0.49658,0.31786 l -0.61632,-1.299449 c -0.59892,0.410449 -1.19039,0.881149 -1.76657,1.405859 l 0.0308,1.85584 c -0.2346,0.24861 -0.46428,0.50891 -0.68815,0.77993 l -1.23609,-0.62888 c -0.51685,0.61663 -1.00612,1.27172 -1.46156,1.95688 l 0.77112,1.52358 c -0.16244,0.29812 -0.31692,0.60096 -0.46299,0.90755 l -1.83715,0.32388 c -0.3422,0.71659 -0.64245,1.44362 -0.89714,2.17233 l 1.55859,0.72868 c -0.0792,0.29929 -0.14919,0.59756 -0.20975,0.89395 l -2.12107,1.45978 c -0.11268,0.68578 -0.17754,1.35468 -0.19384,1.99911 l 2.06938,-0.4163 c 0.008,0.27956 0.0251,0.55257 0.0535,0.81816 l -1.83758,2.29911 c 0.12802,0.54056 0.30218,1.04134 0.52053,1.49678 l 2.02667,-1.44067 c 0.11208,0.22711 0.2364,0.43994 0.37245,0.63762 l -1.11968,2.46949 c 0.34309,0.30806 0.7238,0.55977 1.13778,0.75229 l 1.51909,-1.9443 c 0.22923,0.11147 0.47,0.19928 0.72101,0.26294 l -0.3352,2.08204 c 0.49915,0.0233 1.02086,-0.0172 1.55901,-0.12111 l 0.88079,-1.99582 c 0.31511,-0.0688 0.63564,-0.16612 0.95954,-0.29122 l 0.308,1.53367 c 0.22458,-0.0976 0.44997,-0.20464 0.67575,-0.32109 0.34452,-0.19867 0.68854,-0.4183 1.03054,-0.65793 l 0.2836,-1.90268 c 0.31743,-0.24348 0.63114,-0.50984 0.93918,-0.79742 l 0.90194,0.96345 c 0.5363,-0.5132 1.05501,-1.07058 1.54998,-1.66552 l -0.37489,-1.71812 c 0.23791,-0.33275 0.46634,-0.67678 0.684173,-1.03039 l 1.53117,0.1858 c 0.40939,-0.66733 0.78432,-1.35555 1.12045,-2.0567 l -1.16542,-1.18428 c 0.12998,-0.32988 0.24964,-0.66164 0.35853,-0.99407 l 2.00295,-0.88065 c 0.21145,-0.70652 0.37757,-1.40756 0.49648,-2.09511 l -1.85802,-0.17951 c 0.0265,-0.27799 0.0438,-0.55206 0.0518,-0.82147 l 2.0443,-1.94483 c -0.0246,-0.62402 -0.0981,-1.21689 -0.2198,-1.77178 l -2.10719,0.96686 c -0.06,-0.21785 -0.12874,-0.42757 -0.20596,-0.62858 l 1.50505,-2.4632 c -0.26057,-0.438941 -0.56689,-0.824222 -0.91523,-1.151126 l -1.79723,1.749266 c -0.14571,-0.13621 -0.29947,-0.25958 -0.46082,-0.3697 l 0.72215,-2.340937 c -0.45688,-0.173042 -0.94776,-0.277677 -1.466343,-0.312518 l -1.19814,2.006998 c -0.22575,-0.01375 -0.45716,-0.01022 -0.69333,0.01057 l 4.5e-4,-1.855044 c -0.57711,0.128496 -1.16916,0.328008 -1.76829,0.595922 z m -0.91026,8.243191 c 1.4615,-0.8091 2.63661,-0.0458 2.62555,1.70323 -0.0109,1.74764 -1.20228,3.81988 -2.66184,4.63007 -1.46046,0.81053 -2.63773,0.0514 -2.62863,-1.69729 0.01,-1.74993 1.20251,-3.82625 2.66492,-4.63601 z M 58.77849,99.971288 79.920973,88.331596 c 1.84803,-1.017407 3.31978,-0.123012 3.3014,2.002825 l -0.20796,24.053049 c -0.0181,2.10243 -1.50952,4.61791 -3.34533,5.64257 L 58.66729,131.75225 c -1.8561,1.036 -3.34684,0.17373 -3.34096,-1.93584 l 0.0673,-24.13557 c 0.006,-2.13321 1.51629,-4.68082 3.38489,-5.709552 z" />
      <path
         id="path616"
         style="display:inline;fill:#ffef00;stroke:#000000;stroke-width:0.267645;stroke-dasharray:none;stroke-opacity:1"
         inkscape:label="energy"
         inkscape:transform-center-x="-0.0062859785"
         inkscape:transform-center-y="-0.95754218"
         d="m 49.63554,74.588343 0.23644,15.511611 4.65306,-2.658411 5.68422,7.827163 -0.19887,-15.496248 -4.67227,2.674977 z M 31.022216,82.876504 51.88367,71.071363 c 1.84498,-1.044048 4.78831,-1.027443 6.59768,0.03815 l 20.586167,12.123851 c 1.8094,1.065612 1.76843,2.758301 -0.0902,3.794337 L 57.96197,98.742258 c -1.83571,1.023276 -4.75799,0.994865 -6.55386,-0.06279 L 30.975871,86.646212 c -1.795845,-1.057635 -1.775921,-2.738519 0.04634,-3.769708 z" />
      <path
         style="display:inline;fill:#ffffff;fill-opacity:1;stroke:#000000;stroke-width:0.267645;stroke-dasharray:none;stroke-opacity:1"
         d="m 49.63554,74.588343 0.23644,15.511611 4.65306,-2.658411 5.68422,7.827163 -0.19887,-15.496248 -4.67227,2.674977 z"
         id="path616-5" />
      <path
         id="path620"
         style="display:inline;fill:#0024ff;fill-opacity:1;stroke:#000000;stroke-width:0.365177;stroke-dasharray:none;stroke-opacity:1"
         inkscape:label="water-drop"
         d="m 40.52916,97.757686 -5.927881,7.416124 c -1.075347,0.85768 -1.675692,2.3585 -1.702468,4.25636 -0.05197,4.63163 3.244572,10.35379 7.362559,12.77917 4.117567,2.42513 7.495407,0.63471 7.544887,-3.99752 0.0206,-1.9439 -0.55946,-4.18067 -1.64105,-6.32783 z M 30.357081,87.919139 50.782257,99.956342 c 1.79473,1.057698 3.22158,3.612468 3.19929,5.728458 l -0.25379,24.09417 c -0.0223,2.11944 -1.48651,2.97418 -3.28302,1.91617 L 29.999443,119.65437 c -1.797521,-1.05861 -3.225274,-3.61708 -3.201179,-5.73621 l 0.273917,-24.090591 c 0.02405,-2.115674 1.489149,-2.966722 3.2849,-1.90843 z" />
      <path
         style="display:inline;fill:#ffffff;fill-opacity:1;stroke:#000000;stroke-width:0.365177;stroke-dasharray:none;stroke-opacity:1"
         d="m 40.529157,97.757686 -5.92788,7.416124 c -1.07535,0.85768 -1.675695,2.3585 -1.702471,4.25636 -0.05197,4.63163 3.244571,10.35379 7.362561,12.77917 4.11757,2.42513 7.49541,0.63471 7.54489,-3.99752 0.0206,-1.9439 -0.55946,-4.18067 -1.64105,-6.32783 z"
         id="path620-7" />
    </g>
    <rect
       style="display:inline;fill:none;stroke:#138524;stroke-width:3.92209;stroke-dasharray:none;stroke-opacity:1"
       id="rect25-3"
       width="164.72777"
       height="230.09593"
       x="0.77586055"
       y="1.2869393"
       inkscape:label="card-border"
       ry="13.094791"
       sodipodi:insensitive="true" />
  </g>
</svg>
