<?xml version="1.0" encoding="UTF-8" standalone="no"?>
<!-- Created with Inkscape (http://www.inkscape.org/) -->

<svg
   width="200"
   height="200"
   viewBox="0 0 52.916666 52.916666"
   version="1.1"
   id="svg1"
   inkscape:version="1.3 (0e150ed6c4, 2023-07-21)"
   sodipodi:docname="da-token-orange.svg"
   xmlns:inkscape="http://www.inkscape.org/namespaces/inkscape"
   xmlns:sodipodi="http://sodipodi.sourceforge.net/DTD/sodipodi-0.dtd"
   xmlns="http://www.w3.org/2000/svg"
   xmlns:svg="http://www.w3.org/2000/svg">
  <sodipodi:namedview
     id="namedview1"
     pagecolor="#505050"
     bordercolor="#ffffff"
     borderopacity="1"
     inkscape:showpageshadow="0"
     inkscape:pageopacity="0"
     inkscape:pagecheckerboard="1"
     inkscape:deskcolor="#d1d1d1"
     inkscape:document-units="mm"
     inkscape:zoom="4.3389453"
     inkscape:cx="97.950071"
     inkscape:cy="100.60048"
     inkscape:window-width="1918"
     inkscape:window-height="1059"
     inkscape:window-x="0"
     inkscape:window-y="20"
     inkscape:window-maximized="1"
     inkscape:current-layer="layer1" />
  <defs
     id="defs1" />
  <g
     inkscape:label="token-orange"
     inkscape:groupmode="layer"
     id="layer1">
    <rect
       style="display:inline;fill:#ffffff;stroke-width:0.0710689"
       id="rect25"
       width="52.916668"
       height="52.916668"
       x="-53.0149"
       y="-0.081778556"
       inkscape:label="card-background"
       ry="3.0114946"
       transform="rotate(-90)"
       sodipodi:insensitive="true" />
    <path
       id="path618"
       style="display:inline;fill:#ff7f00;fill-opacity:1;stroke:#000000;stroke-width:1.25454;stroke-dasharray:none;stroke-opacity:1"
       inkscape:transform-center-y="-0.00017115768"
       d="M 28.719596,1.3748936 27.216983,5.1557493 A 19.72976,21.271475 0 0 0 26.452864,5.1355245 19.72976,21.271475 0 0 0 25.153273,5.2356814 L 23.516332,1.4781932 a 25.096829,25.138704 0 0 0 -4.614189,0.9873655 l 0.10493,4.2908177 A 19.72976,21.271475 0 0 0 17.212758,7.6727976 L 13.965318,4.668141 a 25.096829,25.138704 0 0 0 -3.803677,2.6332464 l 2.037339,4.4677556 a 19.72976,21.271475 0 0 0 -1.202111,1.493981 L 6.1908544,11.677331 A 25.096829,25.138704 0 0 0 3.86658,15.519119 l 4.0874951,3.649824 a 19.72976,21.271475 0 0 0 -0.5395535,1.785266 l -5.5373234,0.654345 a 25.096829,25.138704 0 0 0 -0.4875294,4.342564 l 5.4149948,1.679268 A 19.72976,21.271475 0 0 0 6.953964,29.579237 L 2.1631977,32.5213 a 25.096829,25.138704 0 0 0 1.3787479,4.108028 l 5.299129,-0.72529 a 19.72976,21.271475 0 0 0 0.9846878,1.944681 l -2.9109222,4.25576 a 25.096829,25.138704 0 0 0 2.9956407,3.193281 l 3.9683581,-2.535594 a 19.72976,21.271475 0 0 0 1.899058,1.531537 l -0.855204,4.375118 a 25.096829,25.138704 0 0 0 4.101838,1.725171 l 2.292283,-3.477889 a 19.72976,21.271475 0 0 0 2.524108,0.560869 l 0.834407,3.941103 a 25.096829,25.138704 0 0 0 1.777608,0.127686 25.096829,25.138704 0 0 0 2.709524,-0.194471 l 0.718503,-4.034587 A 19.72976,21.271475 0 0 0 32.3475,46.681556 l 2.398646,3.389418 a 25.096829,25.138704 0 0 0 4.069071,-1.857045 l -1.021463,-4.456068 a 19.72976,21.271475 0 0 0 1.790325,-1.502332 l 4.053895,2.398715 a 25.096829,25.138704 0 0 0 2.926932,-3.315968 l -3.106774,-4.234058 a 19.72976,21.271475 0 0 0 0.929546,-1.836183 l 5.284015,0.534997 a 25.096829,25.138704 0 0 0 1.272416,-4.203177 l -4.920308,-2.793496 a 19.72976,21.271475 0 0 0 0.121325,-1.82867 l 5.369466,-1.872067 a 25.096829,25.138704 0 0 0 -0.617818,-4.365933 l -5.551695,-0.46071 a 19.72976,21.271475 0 0 0 -0.556311,-1.71015 l 3.928362,-3.753317 a 25.096829,25.138704 0 0 0 -2.440134,-3.812576 l -4.710087,1.737692 A 19.72976,21.271475 0 0 0 40.344837,11.305073 L 42.206299,6.8431563 A 25.096829,25.138704 0 0 0 38.336278,4.266669 l -3.12034,3.0881172 A 19.72976,21.271475 0 0 0 33.391208,6.500128 L 33.360037,2.2452038 A 25.096829,25.138704 0 0 0 28.721089,1.3746858 Z M 26.452864,19.140758 a 6.9407732,7.2659962 0 0 1 6.940862,7.266254 6.9407732,7.2659962 0 0 1 -6.940862,7.266261 6.9407732,7.2659962 0 0 1 -6.940056,-7.266261 6.9407732,7.2659962 0 0 1 6.940056,-7.266254 z"
       inkscape:label="tools"
       inkscape:transform-center-x="-0.00010830316"
       sodipodi:insensitive="true" />
    <rect
       style="display:inline;fill:none;stroke:#000000;stroke-width:0.352975;stroke-dasharray:none;stroke-opacity:1"
       id="rect25-5"
       width="52.56369"
       height="52.56369"
       x="-52.846771"
       y="0.12475368"
       inkscape:label="card-border"
       ry="2.9914072"
       transform="rotate(-90)"
       sodipodi:insensitive="true" />
  </g>
</svg>
