<?xml version="1.0" encoding="UTF-8" standalone="no"?>
<!-- Created with Inkscape (http://www.inkscape.org/) -->

<svg
   width="630"
   height="880"
   viewBox="0 0 166.6875 232.83333"
   version="1.1"
   id="svg1"
   inkscape:version="1.3 (0e150ed6c4, 2023-07-21)"
   sodipodi:docname="da-deck-swap-character.svg"
   xml:space="preserve"
   xmlns:inkscape="http://www.inkscape.org/namespaces/inkscape"
   xmlns:sodipodi="http://sodipodi.sourceforge.net/DTD/sodipodi-0.dtd"
   xmlns="http://www.w3.org/2000/svg"
   xmlns:svg="http://www.w3.org/2000/svg"><sodipodi:namedview
     id="namedview1"
     pagecolor="#392323"
     bordercolor="#000000"
     borderopacity="0.25"
     inkscape:showpageshadow="false"
     inkscape:pageopacity="0.0"
     inkscape:pagecheckerboard="true"
     inkscape:deskcolor="#d1d1d1"
     inkscape:document-units="px"
     inkscape:zoom="0.94615212"
     inkscape:cx="341.38274"
     inkscape:cy="343.49656"
     inkscape:window-width="1918"
     inkscape:window-height="1078"
     inkscape:window-x="0"
     inkscape:window-y="0"
     inkscape:window-maximized="1"
     inkscape:current-layer="layer1"
     showgrid="false" /><defs
     id="defs1"><marker
       style="overflow:visible"
       id="marker11"
       refX="0"
       refY="0"
       orient="auto-start-reverse"
       inkscape:stockid="Dart arrow"
       markerWidth="1"
       markerHeight="1"
       viewBox="0 0 1 1"
       inkscape:isstock="true"
       inkscape:collect="always"
       preserveAspectRatio="xMidYMid"><path
         style="fill:context-stroke;fill-rule:evenodd;stroke:none"
         d="M 0,0 5,-5 -12.5,0 5,5 Z"
         transform="scale(-0.5)"
         id="path11" /></marker><marker
       style="overflow:visible"
       id="ConcaveTriangle"
       refX="0"
       refY="0"
       orient="auto-start-reverse"
       inkscape:stockid="Concave triangle arrow"
       markerWidth="1"
       markerHeight="1"
       viewBox="0 0 1 1"
       inkscape:isstock="true"
       inkscape:collect="always"
       preserveAspectRatio="xMidYMid"><path
         transform="scale(0.7)"
         d="M -2,-4 9,0 -2,4 c 2,-2.33 2,-5.66 0,-8 z"
         style="fill:context-stroke;fill-rule:evenodd;stroke:none"
         id="path7" /></marker></defs><g
     inkscape:label="swap-character"
     inkscape:groupmode="layer"
     id="layer1"><rect
       style="display:inline;fill:#ffffff;stroke-width:0.264583"
       id="rect25"
       width="166.6875"
       height="232.83333"
       x="-1.1931818e-06"
       y="0"
       inkscape:label="card-background"
       ry="13.250577"
       sodipodi:insensitive="true" /><text
       xml:space="preserve"
       style="font-size:14.1111px;font-family:Cantarell;-inkscape-font-specification:'Cantarell, Normal';text-align:center;text-anchor:middle;fill:#00360b;stroke-width:1"
       x="80.900917"
       y="175.4706"
       id="text1"
       inkscape:label="card-effect"
       sodipodi:insensitive="true"><tspan
         sodipodi:role="line"
         style="stroke-width:1"
         x="80.900917"
         y="175.4706"
         id="tspan2">Regresa un Meeple</tspan><tspan
         sodipodi:role="line"
         style="stroke-width:1"
         x="80.900917"
         y="193.10947"
         id="tspan3">con su jugador</tspan></text><path
       style="fill:#00360b;fill-opacity:1;stroke:#00360b;stroke-width:1.52826;stroke-linecap:butt;stroke-linejoin:bevel;stroke-dasharray:none;stroke-opacity:1;marker-mid:url(#marker11);marker-end:url(#ConcaveTriangle);paint-order:stroke fill markers"
       d="M 120.23634,72.145148 59.619673,107.10903"
       id="path10"
       sodipodi:nodetypes="cc"
       inkscape:label="arrow-right" /><path
       fill="#000000"
       d="m 139.12962,48.378983 c -2.01097,0 -3.45723,1.064098 -4.29253,2.4005 -0.74703,1.195186 -1.05784,2.581492 -1.11847,3.795667 -2.27969,1.127265 -4.8051,2.26376 -6.83841,3.42565 -1.06656,0.609473 -1.99645,1.222524 -2.69642,1.881379 -0.69996,0.658701 -1.21641,1.400528 -1.21641,2.275671 0,0.372402 0.18173,0.675906 0.38655,0.898606 0.20512,0.222695 0.45091,0.395639 0.73081,0.557115 0.55972,0.322946 1.26542,0.592115 2.04165,0.824943 1.15318,0.346035 2.44467,0.603293 3.56761,0.713297 -1.11691,1.924574 -2.60331,3.692291 -3.90627,5.386049 -1.50577,1.957495 -2.82035,3.834767 -2.82035,5.920222 0,0.29792 -0.003,0.530521 0.0231,0.764167 0.0264,0.233646 0.0936,0.525312 0.32846,0.756425 0.23498,0.231186 0.52263,0.293302 0.75694,0.318771 0.23432,0.02567 0.47035,0.02266 0.77311,0.02266 h 8.30769 c 0.60307,0 1.04466,0.03663 1.49892,-0.255469 0.45433,-0.291962 0.61997,-0.690804 0.94366,-1.286651 l 0.007,-0.01193 0.006,-0.01238 c 0,0 0.72418,-1.472477 1.58822,-2.933634 0.43199,-0.730502 0.90099,-1.458027 1.30892,-1.973581 0.20408,-0.257701 0.39505,-0.462072 0.53253,-0.577518 0.042,-0.03516 0.0611,-0.04169 0.0882,-0.05663 0.027,0.01488 0.0462,0.02147 0.0882,0.05663 0.1375,0.115446 0.32846,0.319817 0.53254,0.577518 0.40793,0.515554 0.87693,1.243079 1.30892,1.973581 0.86397,1.461157 1.58822,2.93356 1.58822,2.93356 l 0.006,0.01227 0.007,0.01193 c 0.32369,0.595841 0.48784,0.992297 0.93919,1.285083 0.4512,0.292706 0.89183,0.256957 1.48641,0.256957 h 8.34426 c 0.29792,0 0.5303,0.0034 0.76297,-0.02266 0.23261,-0.02584 0.52122,-0.09013 0.75374,-0.322652 0.23238,-0.232526 0.29673,-0.521137 0.3225,-0.753738 0.0259,-0.232533 0.0228,-0.465059 0.0228,-0.76298 0,-2.085449 -1.31457,-3.962726 -2.82034,-5.920296 -1.30289,-1.693684 -2.78929,-3.4614 -3.90628,-5.386049 1.12294,-0.110078 2.41444,-0.367188 3.56761,-0.713223 0.77624,-0.232748 1.48194,-0.501996 2.04166,-0.824869 0.2799,-0.161476 0.52568,-0.334414 0.73065,-0.557115 0.20505,-0.222695 0.3867,-0.526198 0.3867,-0.898606 0,-0.875142 -0.51644,-1.616964 -1.21641,-2.275671 -0.69997,-0.658855 -1.62985,-1.2719 -2.69641,-1.881373 -2.03332,-1.161896 -4.55872,-2.298465 -6.83842,-3.425651 -0.0606,-1.214032 -0.37151,-2.60048 -1.11847,-3.795519 -0.8353,-1.336475 -2.28156,-2.400505 -4.29253,-2.400505 z"
       id="path1"
       style="stroke-width:0.0744804"
       inkscape:label="meeple" /><g
       style="fill:#000000"
       id="g3"
       transform="matrix(1.7473968,0,0,1.7473968,10.527093,95.607679)"
       inkscape:label="hand"><path
         d="m 29.064,11.92 c -0.421,-0.176 -0.911,-0.279 -1.424,-0.279 -0.576,0 -1.122,0.129 -1.611,0.36 l 0.023,-0.01 -5.778,2.596 c 0.003,-0.047 0.026,-0.088 0.026,-0.135 -0.014,-1.371 -1.129,-2.477 -2.502,-2.477 -0.069,0 -0.136,0.003 -0.204,0.008 l 0.009,-0.001 H 13.82 L 9.06,10.588 c -0.062,-0.019 -0.134,-0.03 -0.209,-0.03 -0.001,0 -0.002,0 -0.002,0 H 6.68 V 9.8 C 6.68,9.386 6.344,9.05 5.93,9.05 H 2.047 c -0.414,0 -0.75,0.336 -0.75,0.75 v 0 12.208 c 0,0.414 0.336,0.75 0.75,0.75 H 5.93 c 0.414,0 0.75,-0.336 0.75,-0.75 v 0 -1.004 c 1.818,0.284 3.446,0.742 4.988,1.366 l -0.15,-0.054 c 1.159,0.416 2.497,0.656 3.891,0.656 1.607,0 3.139,-0.319 4.536,-0.898 l -0.079,0.029 c 1.243,-0.553 2.298,-1.136 3.297,-1.799 l -0.082,0.051 c 0.338,-0.209 0.674,-0.418 1.014,-0.619 1.641,-0.971 2.951,-1.819 4.129,-2.671 0.58,-0.413 1.086,-0.822 1.567,-1.257 l -0.015,0.013 c 0.37,-0.301 0.666,-0.679 0.865,-1.11 l 0.008,-0.019 c 0.032,-0.08 0.05,-0.172 0.05,-0.269 0,-0.056 -0.006,-0.111 -0.018,-0.164 l 10e-4,0.005 C 30.535,13.248 29.926,12.398 29.079,11.926 L 29.063,11.918 Z M 5.181,21.26 H 2.798 V 10.552 h 2.383 z m 23.538,-6.501 c -0.412,0.37 -0.861,0.73 -1.328,1.063 l -0.047,0.032 c -1.137,0.822 -2.412,1.647 -4.014,2.596 -0.348,0.205 -0.691,0.418 -1.037,0.631 -0.855,0.574 -1.838,1.121 -2.866,1.586 l -0.13,0.052 c -1.152,0.473 -2.49,0.748 -3.891,0.748 -1.203,0 -2.358,-0.202 -3.435,-0.575 l 0.074,0.022 C 10.49,20.262 8.681,19.764 6.795,19.504 L 6.68,19.491 v -7.432 h 2.061 l 4.76,1.394 c 0.062,0.019 0.134,0.03 0.209,0.03 10e-4,0 0.002,0 0.002,0 h 3.89 c 0.883,0 1.197,0.522 1.197,0.97 0,0.448 -0.314,0.97 -1.197,0.97 h -6.809 c -0.414,0 -0.75,0.336 -0.75,0.75 0,0.414 0.336,0.75 0.75,0.75 v 0 h 7.781 c 0.111,0 0.216,-0.024 0.311,-0.067 l -0.005,0.002 7.795,-3.502 c 0.287,-0.132 0.623,-0.21 0.977,-0.21 0.266,0 0.521,0.043 0.76,0.124 l -0.017,-0.005 c 0.382,0.229 0.658,0.604 0.75,1.045 l 0.002,0.01 c -0.135,0.159 -0.276,0.302 -0.427,0.434 l -0.005,0.004 z"
         id="path1-6" /></g><rect
       style="display:inline;fill:none;stroke:#000000;stroke-width:1.32292;stroke-dasharray:none;stroke-opacity:1"
       id="rect25-3"
       width="166.6875"
       height="232.83333"
       x="-1.1931818e-06"
       y="-3.695488e-06"
       inkscape:label="card-border"
       ry="13.250577"
       sodipodi:insensitive="true" /></g></svg>
