<?xml version="1.0" encoding="UTF-8" standalone="no"?>
<!-- Created with Inkscape (http://www.inkscape.org/) -->

<svg
   width="630"
   height="880"
   viewBox="0 0 166.6875 232.83333"
   version="1.1"
   id="svg1"
   inkscape:version="1.3 (0e150ed6c4, 2023-07-21)"
   sodipodi:docname="da-deck-one-more-pet-food.svg"
   xmlns:inkscape="http://www.inkscape.org/namespaces/inkscape"
   xmlns:sodipodi="http://sodipodi.sourceforge.net/DTD/sodipodi-0.dtd"
   xmlns="http://www.w3.org/2000/svg"
   xmlns:svg="http://www.w3.org/2000/svg">
  <sodipodi:namedview
     id="namedview1"
     pagecolor="#2c1d1d"
     bordercolor="#000000"
     borderopacity="0.25"
     inkscape:showpageshadow="false"
     inkscape:pageopacity="0.0"
     inkscape:pagecheckerboard="true"
     inkscape:deskcolor="#d1d1d1"
     inkscape:document-units="px"
     inkscape:zoom="0.74473177"
     inkscape:cx="202.75756"
     inkscape:cy="428.34214"
     inkscape:window-width="1920"
     inkscape:window-height="1012"
     inkscape:window-x="0"
     inkscape:window-y="32"
     inkscape:window-maximized="1"
     inkscape:current-layer="layer1" />
  <defs
     id="defs1">
    <rect
       x="414.91448"
       y="198.72927"
       width="378.65982"
       height="72.509327"
       id="rect5" />
    <inkscape:path-effect
       effect="powerstroke"
       id="path-effect2"
       is_visible="true"
       lpeversion="1.3"
       scale_width="1"
       interpolator_type="CentripetalCatmullRom"
       interpolator_beta="0.75"
       start_linecap_type="round"
       end_linecap_type="round"
       offset_points="31.204005,2.3886746"
       linejoin_type="spiro"
       miter_limit="4"
       not_jump="true"
       sort_points="true"
       message="&lt;b&gt;Ctrl + clic&lt;/b&gt; sobre un nodo existente y muévalo" />
    <inkscape:path-effect
       effect="simplify"
       id="path-effect1"
       is_visible="true"
       lpeversion="1.3"
       threshold="0.012"
       steps="1"
       smooth_angles="0"
       helper_size="0"
       simplify_individual_paths="false"
       simplify_just_coalesce="false"
       step="1" />
  </defs>
  <g
     inkscape:label="one-more-pet-food"
     inkscape:groupmode="layer"
     id="layer1"
     sodipodi:insensitive="true">
    <rect
       style="display:inline;fill:#ffffff;stroke-width:0.264583"
       id="rect25"
       width="166.6875"
       height="232.83333"
       x="5.7220459e-06"
       y="-2.5431316e-06"
       inkscape:label="card-background"
       ry="13.250577"
       sodipodi:insensitive="true" />
    <text
       xml:space="preserve"
       style="font-style:normal;font-variant:normal;font-weight:normal;font-stretch:normal;font-size:12.7px;font-family:Cantarell;-inkscape-font-specification:'Cantarell, Normal';font-variant-ligatures:normal;font-variant-caps:normal;font-variant-numeric:normal;font-variant-east-asian:normal;text-align:center;text-anchor:middle;fill:#00360b;fill-opacity:1;stroke:none;stroke-width:1;stroke-dasharray:none"
       x="82.657959"
       y="189.84895"
       id="text2"
       inkscape:label="card-effect"
       sodipodi:insensitive="true"><tspan
         sodipodi:role="line"
         style="text-align:center;text-anchor:middle;fill:#00360b;fill-opacity:1;stroke-width:1"
         x="82.657959"
         y="189.84895"
         id="tspan4">Aumenta +1 la capacidad de</tspan><tspan
         sodipodi:role="line"
         style="text-align:center;text-anchor:middle;fill:#00360b;fill-opacity:1;stroke-width:1"
         x="82.657959"
         y="205.72395"
         id="tspan5">latas que puede llevar </tspan><tspan
         sodipodi:role="line"
         style="text-align:center;text-anchor:middle;fill:#00360b;fill-opacity:1;stroke-width:1"
         x="82.657959"
         y="221.59895"
         id="tspan7">tu personaje</tspan></text>
    <text
       xml:space="preserve"
       style="font-style:normal;font-variant:normal;font-weight:normal;font-stretch:normal;font-size:12.7px;font-family:Cantarell;-inkscape-font-specification:'Cantarell, Normal';font-variant-ligatures:normal;font-variant-caps:normal;font-variant-numeric:normal;font-variant-east-asian:normal;text-align:center;text-anchor:middle;fill:#00360b;fill-opacity:1;stroke:none;stroke-width:1;stroke-dasharray:none"
       x="82.791306"
       y="159.483"
       id="text2-8"
       inkscape:label="card-effect"
       sodipodi:insensitive="true"><tspan
         sodipodi:role="line"
         style="text-align:center;text-anchor:middle;fill:#00360b;fill-opacity:1;stroke-width:1"
         x="82.791306"
         y="159.483"
         id="tspan4-2">+1</tspan></text>
    <g
       inkscape:groupmode="layer"
       id="layer2-7"
       inkscape:label="food-can"
       style="display:inline;fill:none"
       transform="matrix(-4.1698135,0,0,-4.5484574,2808.2191,659.71064)"
       sodipodi:insensitive="true">
      <path
         id="path22"
         style="display:inline;fill:#ffffff;fill-opacity:1;stroke:#000000;stroke-width:0.264583;stroke-dasharray:none;stroke-opacity:1"
         d="m 664.44522,115.1628 c -8.54749,-4.24871 -15.51769,-2.87369 -21.93733,0.0173 m 0.13212,23.97237 -0.13212,-23.97236 m 21.80504,23.97236 0.13229,-23.98967 m -21.80521,23.98968 a 10.836458,2.0956793 0 0 1 10.8214,-2.09568 10.836458,2.0956793 0 0 1 10.85148,2.08985 10.836458,2.0956793 0 0 1 -10.79123,2.10149 10.836458,2.0956793 0 0 1 -10.88148,-2.08401" />
      <rect
         style="display:inline;fill:#b9d7c6;fill-opacity:1;stroke:#000000;stroke-width:0.25668;stroke-dasharray:none;stroke-opacity:1"
         id="rect23"
         width="20.635298"
         height="14.040864"
         x="-663.79413"
         y="-133.88046"
         transform="scale(-1)"
         ry="7.020432" />
      <text
         xml:space="preserve"
         style="font-style:normal;font-variant:normal;font-weight:normal;font-stretch:normal;font-size:4.23333px;font-family:Cantarell;-inkscape-font-specification:'Cantarell, Normal';font-variant-ligatures:normal;font-variant-caps:normal;font-variant-numeric:normal;font-variant-east-asian:normal;text-align:center;text-anchor:middle;display:inline;fill:#00360b;fill-opacity:1;stroke:#00360b;stroke-width:0.264583;stroke-dasharray:none;stroke-opacity:1"
         x="-653.55688"
         y="-128.05174"
         id="text23"
         transform="scale(-1)"><tspan
           sodipodi:role="line"
           id="tspan23"
           style="font-style:normal;font-variant:normal;font-weight:normal;font-stretch:normal;font-size:4.23333px;font-family:Cantarell;-inkscape-font-specification:'Cantarell, Normal';font-variant-ligatures:normal;font-variant-caps:normal;font-variant-numeric:normal;font-variant-east-asian:normal;fill:#00360b;fill-opacity:1;stroke:#00360b;stroke-width:0.264583;stroke-dasharray:none;stroke-opacity:1"
           x="-653.55688"
           y="-128.05174">PET</tspan><tspan
           sodipodi:role="line"
           style="font-style:normal;font-variant:normal;font-weight:normal;font-stretch:normal;font-size:4.23333px;font-family:Cantarell;-inkscape-font-specification:'Cantarell, Normal';font-variant-ligatures:normal;font-variant-caps:normal;font-variant-numeric:normal;font-variant-east-asian:normal;fill:#00360b;fill-opacity:1;stroke:#00360b;stroke-width:0.264583;stroke-dasharray:none;stroke-opacity:1"
           x="-653.55688"
           y="-122.76008"
           id="tspan24">FOOD</tspan></text>
      <path
         style="display:inline;fill:#c4c8b7;fill-opacity:1;stroke:#00360b;stroke-width:0.0330729;stroke-dasharray:none;stroke-opacity:1"
         d="m 655.50025,137.23796 c 4.28355,0.16809 7.75003,0.83423 8.49704,1.63285 0.22864,0.24444 0.20244,0.42274 -0.0973,0.66201 -0.77063,0.61518 -3.15486,1.15057 -6.24999,1.40347 -1.25988,0.10295 -1.75434,0.12223 -3.58841,0.13992 -2.87654,0.0278 -4.84703,-0.0817 -6.99493,-0.38873 -2.57287,-0.36772 -4.28294,-0.985 -4.28294,-1.54602 0,-0.20191 0.3999,-0.51378 0.94644,-0.7381 1.30908,-0.53729 3.58462,-0.91365 6.79262,-1.12345 0.52116,-0.0341 4.35458,-0.0664 4.97748,-0.0419 z"
         id="path25" />
      <path
         style="display:inline;fill:#217844;fill-opacity:1;stroke:#00360b;stroke-width:0.0330729;stroke-dasharray:none;stroke-opacity:1"
         d="m 654.80964,112.64376 c 2.80959,0.16074 5.55984,0.84977 8.38006,2.09949 0.31833,0.14106 0.69412,0.31435 0.83509,0.38509 l 0.25632,0.12861 -8e-4,1.85998 c -4.2e-4,1.02299 -0.0224,5.46162 -0.0488,9.86363 -0.0264,4.402 -0.0484,8.81838 -0.0488,9.81417 l -7.6e-4,1.81052 -0.15367,-0.11729 c -0.69774,-0.5326 -2.67081,-1.02932 -5.17107,-1.30183 -1.85904,-0.20262 -2.88193,-0.25007 -5.39089,-0.25007 -2.24161,0 -2.74831,0.0176 -4.33255,0.15011 -3.02582,0.25318 -5.39989,0.78871 -6.21771,1.40257 l -0.11575,0.0869 -0.009,-0.24128 c -0.0242,-0.68017 -0.13283,-23.03214 -0.11202,-23.05317 0.0358,-0.0362 0.78733,-0.35804 1.52621,-0.65365 2.74396,-1.09778 5.20636,-1.71307 7.73906,-1.93378 0.71588,-0.0624 2.19646,-0.0882 2.86473,-0.05 z m -5.67593,7.12197 c -1.39703,0.23187 -2.56479,0.76195 -3.61169,1.63948 -1.2201,1.0227 -2.07502,2.50693 -2.38888,4.14735 -0.13923,0.72767 -0.14735,1.7192 -0.0204,2.48633 0.51536,3.1134 2.98228,5.50035 6.12014,5.92174 0.28208,0.0379 1.07989,0.0467 4.24987,0.0471 3.70638,4.6e-4 3.92477,-0.003 4.34347,-0.0644 3.15106,-0.46359 5.56638,-2.88951 6.04333,-6.06986 0.0741,-0.49396 0.0739,-1.52544 -3.4e-4,-2.01745 -0.19852,-1.31555 -0.72359,-2.52407 -1.53036,-3.52227 -0.43453,-0.53763 -1.18688,-1.19824 -1.79704,-1.57789 -0.91905,-0.57184 -2.12909,-0.95883 -3.27222,-1.0465 -0.0819,-0.006 -1.86779,-0.009 -3.96875,-0.006 -3.46208,0.005 -3.85245,0.0105 -4.16718,0.0627 z"
         id="path26" />
      <path
         style="display:inline;fill:#7a7a7a;fill-opacity:1;stroke:#00360b;stroke-width:0.264583;stroke-dasharray:none;stroke-opacity:1"
         id="path27"
         transform="scale(-1)"
         sodipodi:type="arc"
         sodipodi:cx="-659.88574"
         sodipodi:cy="-139.15483"
         sodipodi:rx="1.9808525"
         sodipodi:ry="0.51006687"
         sodipodi:start="0"
         sodipodi:end="6.2776255"
         sodipodi:open="true"
         sodipodi:arc-type="arc"
         d="m -657.90489,-139.15483 a 1.9808525,0.51006687 0 0 1 -1.9781,0.51007 1.9808525,0.51006687 0 0 1 -1.9836,-0.50865 1.9808525,0.51006687 0 0 1 1.97259,-0.51148 1.9808525,0.51006687 0 0 1 1.98908,0.50722" />
    </g>
    <rect
       style="display:inline;fill:none;stroke:#000000;stroke-width:1.32292;stroke-dasharray:none;stroke-opacity:1"
       id="rect25-3"
       width="166.6875"
       height="232.83333"
       x="-6.7353249e-06"
       y="-1.110223e-16"
       inkscape:label="card-border"
       ry="13.250577"
       sodipodi:insensitive="true" />
  </g>
</svg>
